<svg fill="none" height="515" viewBox="0 0 515 515" width="515" xmlns="http://www.w3.org/2000/svg" xmlns:xlink="http://www.w3.org/1999/xlink"><radialGradient id="a" cx="0" cy="0" gradientTransform="matrix(-1189.29 0 -0 -1189.29 -10.3603 504.539)" gradientUnits="userSpaceOnUse" r="1"><stop offset="0" stop-color="#f9ed32"/><stop offset=".36" stop-color="#ee2a7b"/><stop offset=".44" stop-color="#d22a8a"/><stop offset=".6" stop-color="#8b2ab2"/><stop offset=".83" stop-color="#1b2af0"/><stop offset=".88" stop-color="#002aff"/></radialGradient><clipPath id="b"><path d="m0 0h515v515h-515z"/></clipPath><clipPath id="c"><path d="m0 0h515v515h-515z"/></clipPath><g clip-path="url(#b)"><g clip-path="url(#c)"><path d="m90.125 515h334.75c49.775 0 90.125-40.35 90.125-90.125v-334.75c0-49.7747-40.35-90.125-90.125-90.125h-334.75c-49.7747 0-90.125 40.3503-90.125 90.125v334.75c0 49.775 40.3503 90.125 90.125 90.125z" fill="url(#a)"/><g fill="#fff"><path d="m354.062 450.625h-193.124c-25.61 0-50.172-10.174-68.2805-28.282-18.109-18.109-28.2825-42.671-28.2825-68.281v-193.124c0-25.61 10.1735-50.172 28.2825-68.2805 18.1085-18.109 42.6705-28.2825 68.2805-28.2825h193.124c25.61 0 50.172 10.1735 68.281 28.2825 18.108 18.1085 28.282 42.6705 28.282 68.2805v193.124c0 25.61-10.174 50.172-28.282 68.281-18.109 18.108-42.671 28.282-68.281 28.282zm-193.124-347.625c-15.36.021-30.084 6.132-40.945 16.993s-16.972 25.585-16.993 40.945v193.124c.021 15.36 6.132 30.084 16.993 40.945s25.585 16.972 40.945 16.993h193.124c15.36-.021 30.084-6.132 40.945-16.993s16.972-25.585 16.993-40.945v-193.124c-.021-15.36-6.132-30.084-16.993-40.945s-25.585-16.972-40.945-16.993z"/><path d="m257.5 366.937c-21.645 0-42.803-6.418-60.8-18.443s-32.024-29.117-40.307-49.114-10.45-42.001-6.228-63.23c4.223-21.229 14.646-40.729 29.951-56.034s34.805-25.728 56.034-29.951c21.229-4.222 43.233-2.055 63.23 6.228s37.089 22.31 49.114 40.307 18.444 39.155 18.444 60.8c-.022 29.018-11.559 56.842-32.077 77.36-20.519 20.519-48.343 32.056-77.361 32.077zm0-180.249c-14.005 0-27.696 4.153-39.341 11.934s-20.722 18.84-26.081 31.779c-5.36 12.94-6.762 27.178-4.03 40.914 2.733 13.736 9.477 26.354 19.38 36.257s22.521 16.648 36.257 19.38 27.975 1.33 40.914-4.03c12.939-5.359 23.999-14.436 31.779-26.081 7.781-11.645 11.935-25.336 11.935-39.341-.022-18.774-7.489-36.773-20.764-50.048-13.276-13.276-31.275-20.743-50.049-20.764z"/><path d="m366.937 173.813c10.666 0 19.313-8.647 19.313-19.313s-8.647-19.312-19.313-19.312-19.312 8.646-19.312 19.312 8.646 19.313 19.312 19.313z"/></g></g></g></svg>