<svg fill="none" height="50" viewBox="0 0 200 50" width="200" xmlns="http://www.w3.org/2000/svg" xmlns:xlink="http://www.w3.org/1999/xlink"><clipPath id="a"><path d="m157 18h9v16h-9z"/></clipPath><rect fill="#000" height="50" rx="25" width="200"/><path d="m63.2188 22.4922h2.2851v2.0918h-2.2851v8.1035h-2.5313v-16.1367h2.5313zm-9.8086-.8613h2.9179v-3.8145h2.5137v11.1797h-7.9629v-11.1797h2.5313zm2.9179 5.3086v-3.3575h-2.9179v3.3575zm24.3985 4.0078h-14.7481v-2.0567h6.0996v-2.25h-4.4472v-5.5547h8.9472v-1.5117h-8.9648v-2.0215h11.4609v5.502h-8.9121v1.5469h9.2813v2.039h-4.8692v2.25h6.1524zm13.6054-8.3321h2.1621v2.0743h-2.1621v7.9453h-2.5312v-16.084h2.5312zm-4.3593-4.4472c0 2.625-.5625 4.9248-1.6875 6.8994-1.1192 1.9746-2.9825 3.6006-5.5899 4.8779l-1.4238-1.9336c1.8691-.9375 3.3017-2.0332 4.2978-3.2871 1.002-1.2539 1.6114-2.748 1.8282-4.4824h-5.1592v-2.0742zm20.7423 14.5195h-2.567v-16.1367h2.567zm-4.852-14.4668c0 1.7695-.222 3.3633-.668 4.7813-.445 1.4121-1.216 2.7099-2.311 3.8935-1.09 1.1777-2.581 2.2119-4.4738 3.1025l-1.3184-2.0039c1.3594-.6445 2.4727-1.3476 3.3402-2.1093.867-.7618 1.526-1.6055 1.977-2.5313.457-.9258.747-1.9805.87-3.164h-5.2731v-1.9688z" fill="#fff"/><g clip-path="url(#a)"><path d="m157 19.2994 1.258-1.2994 7.742 8-7.742 8-1.258-1.2994 6.485-6.7006z" fill="#fff"/></g></svg>