<svg fill="none" height="242" viewBox="0 0 508 242" width="508" xmlns="http://www.w3.org/2000/svg"><path d="m154 225h105v2h-105z" fill="#2e3132"/><path d="m262 195h51v32h-51z" fill="#1050f0"/><path d="m485.04 218.704c0-.592.144-1.008.432-1.248s.632-.36 1.032-.36c.416 0 .768.12 1.056.36.304.24.456.656.456 1.248 0 .576-.152.992-.456 1.248-.288.256-.64.384-1.056.384-.4 0-.744-.128-1.032-.384s-.432-.672-.432-1.248z" fill="#303031"/><path d="m466.993 211.336h1.968v6.504h-1.968zm8.016 0h1.992v6.504h-1.992zm-12.816 6.12h19.656v1.656h-19.656zm9.792-15.912c4.584 0 7.872 2.184 7.872 5.592 0 3.384-3.288 5.568-7.872 5.568-4.608 0-7.896-2.184-7.896-5.568 0-3.408 3.288-5.592 7.896-5.592zm0 1.584c-3.48 0-5.976 1.584-5.976 4.008 0 2.4 2.496 3.984 5.976 3.984s5.952-1.584 5.952-3.984c0-2.424-2.472-4.008-5.952-4.008z" fill="#303031"/><path d="m448.419 207.928h4.152v1.656h-4.152zm-4.056-5.712h1.56v4.128c0 4.536-1.896 8.928-5.064 10.872l-1.248-1.512c2.976-1.752 4.752-5.64 4.752-9.36zm.384 0h1.536v4.056c0 3.48 1.632 7.176 4.488 8.904l-1.152 1.56c-3.12-1.92-4.872-6.24-4.872-10.464zm11.64-2.04h1.92v21.696h-1.92zm-4.392.456h1.872v20.16h-1.872z" fill="#000" fill-opacity=".8"/><path d="m417.558 217.456h19.656v1.656h-19.656zm8.784-5.184h1.992v5.664h-1.992zm-6.48-10.56h1.968v3.864h11.064v-3.864h1.968v11.088h-15zm1.968 5.472v3.984h11.064v-3.984z" fill="#000" fill-opacity=".8"/><path d="m388.717 203.872h10.752v1.632h-10.752zm5.376 3.072c2.712 0 4.68 2.04 4.68 4.968 0 2.904-1.968 4.944-4.68 4.944-2.688 0-4.656-2.04-4.656-4.944 0-2.928 1.968-4.968 4.656-4.968zm0 1.704c-1.656 0-2.856 1.344-2.856 3.264s1.2 3.264 2.856 3.264c1.68 0 2.904-1.344 2.904-3.264s-1.224-3.264-2.904-3.264zm11.112-8.472h1.92v21.696h-1.92zm-3.456 9.12h4.104v1.656h-4.104zm-1.176-8.64h1.872v20.16h-1.872zm-7.44.144h1.968v4.08h-1.968z" fill="#000" fill-opacity=".8"/><path d="m382.287 200.176h1.992v13.128h-1.992zm-3.6 6.576h4.488v1.656h-4.488zm-8.472 7.704h14.064v7.128h-14.064zm12.12 1.608h-10.176v3.912h10.176zm-15.864-13.632h12.552v1.608h-12.552zm6.264 2.712c2.928 0 5.016 1.584 5.016 3.888s-2.088 3.84-5.016 3.84-5.016-1.536-5.016-3.84 2.088-3.888 5.016-3.888zm0 1.536c-1.824 0-3.12.936-3.12 2.352 0 1.392 1.296 2.328 3.12 2.328s3.12-.936 3.12-2.328c0-1.416-1.296-2.352-3.12-2.352zm-.984-6.72h1.992v3.624h-1.992z" fill="#000" fill-opacity=".8"/><path d="m354.497 204.16h5.808v1.632h-5.808zm-.192 4.512h5.856v1.632h-5.856zm5.664-8.496h1.992v13.008h-1.992zm-6.792 1.632h2.136c0 5.592-3.864 9.504-10.104 11.376l-.816-1.608c5.544-1.608 8.784-4.8 8.784-8.904zm-7.656 0h9.024v1.632h-9.024zm9.384 11.616c4.392 0 7.176 1.56 7.176 4.176s-2.784 4.176-7.176 4.176-7.176-1.56-7.176-4.176 2.784-4.176 7.176-4.176zm0 1.56c-3.168 0-5.208.984-5.208 2.616s2.04 2.592 5.208 2.592c3.192 0 5.232-.96 5.232-2.592s-2.04-2.616-5.232-2.616z" fill="#000" fill-opacity=".8"/><path d="m325.129 200.536c4.776 0 7.631 1.344 7.631 3.768s-2.855 3.768-7.631 3.768c-4.8 0-7.633-1.344-7.633-3.768s2.833-3.768 7.633-3.768zm0 1.512c-3.552 0-5.593.816-5.593 2.256s2.041 2.256 5.593 2.256c3.528 0 5.568-.816 5.568-2.256s-2.04-2.256-5.568-2.256zm-9.817 7.464h19.609v1.608h-19.609zm2.377 3.456h14.735v4.896h-12.72v2.64h-1.967v-4.08h12.72v-1.92h-12.768zm.048 7.104h15.336v1.56h-15.336z" fill="#000" fill-opacity=".8"/><path d="m291.199 201.088h13.968v1.608h-13.968zm-2.496 7.152h19.656v1.632h-19.656zm15.168-7.152h1.944v1.392c0 1.56 0 3.576-.576 6.264l-1.944-.216c.576-2.64.576-4.512.576-6.048zm-12.864 10.92h14.88v5.52h-12.84v3.024h-1.992v-4.56h12.864v-2.376h-12.912zm.048 8.016h15.384v1.608h-15.384z" fill="#fff"/><path d="m281.218 200.2h1.992v16.272h-1.992zm1.368 7.104h3.84v1.68h-3.84zm-16.152-4.488h12.816v1.608h-12.816zm6.408 2.808c3.072 0 5.184 1.608 5.184 4.056 0 2.424-2.112 4.032-5.184 4.032-3.096 0-5.208-1.608-5.208-4.032 0-2.448 2.112-4.056 5.208-4.056zm0 1.56c-1.968 0-3.312.984-3.312 2.496 0 1.488 1.344 2.472 3.312 2.472 1.944 0 3.288-.984 3.288-2.472 0-1.512-1.344-2.496-3.288-2.496zm-1.008-7.008h1.992v3.48h-1.992zm-2.136 19.584h14.496v1.632h-14.496zm0-4.584h1.992v5.28h-1.992z" fill="#fff"/><g fill="#000" fill-opacity=".8"><path d="m242.417 207.521h1.968v4.104h-1.968zm7.968 0h1.968v4.104h-1.968zm-12.816 3.384h19.608v1.608h-19.608zm9.792 3.24c4.656 0 7.44 1.368 7.44 3.84s-2.784 3.864-7.44 3.864-7.44-1.392-7.44-3.864 2.784-3.84 7.44-3.84zm0 1.536c-3.384 0-5.424.84-5.424 2.304 0 1.488 2.04 2.304 5.424 2.304 3.408 0 5.424-.816 5.424-2.304 0-1.464-2.016-2.304-5.424-2.304zm.024-15.12c4.704 0 7.632 1.512 7.632 4.056 0 2.52-2.928 4.008-7.632 4.008-4.728 0-7.632-1.488-7.632-4.008 0-2.544 2.904-4.056 7.632-4.056zm0 1.56c-3.456 0-5.592.912-5.592 2.496 0 1.56 2.136 2.472 5.592 2.472s5.592-.912 5.592-2.472c0-1.584-2.136-2.496-5.592-2.496z"/><path d="m235.029 215.417c0 1.024-.248 1.896-.744 2.616-.496.704-1.208 1.248-2.136 1.632-.912.384-1.992.576-3.24.576-.64 0-1.256-.032-1.848-.096-.576-.064-1.104-.152-1.584-.264-.48-.128-.904-.28-1.272-.456v-2.064c.576.256 1.288.488 2.136.696.864.208 1.752.312 2.664.312.848 0 1.56-.112 2.136-.336s1.008-.544 1.296-.96.432-.904.432-1.464-.12-1.032-.36-1.416-.656-.736-1.248-1.056c-.576-.336-1.384-.688-2.424-1.056-.736-.272-1.384-.56-1.944-.864-.544-.32-1-.68-1.368-1.08s-.648-.856-.84-1.368c-.176-.512-.264-1.104-.264-1.776 0-.912.232-1.688.696-2.328.464-.656 1.104-1.16 1.92-1.512.832-.352 1.784-.528 2.856-.528.944 0 1.808.088 2.592.264s1.496.408 2.136.696l-.672 1.848c-.592-.256-1.24-.472-1.944-.648-.688-.176-1.408-.264-2.16-.264-.72 0-1.32.104-1.8.312s-.84.504-1.08.888c-.24.368-.36.8-.36 1.296 0 .576.12 1.056.36 1.44s.632.728 1.176 1.032 1.28.632 2.208.984c1.008.368 1.856.768 2.544 1.2.704.416 1.232.92 1.584 1.512.368.592.552 1.336.552 2.232z"/><path d="m221.271 211.409c0 1.328-.168 2.536-.504 3.624-.336 1.072-.84 2-1.512 2.784-.656.784-1.48 1.384-2.472 1.8-.976.416-2.112.624-3.408.624-1.344 0-2.512-.208-3.504-.624-.992-.432-1.816-1.032-2.472-1.8-.656-.784-1.144-1.72-1.464-2.808s-.48-2.296-.48-3.624c0-1.76.288-3.296.864-4.608s1.448-2.336 2.616-3.072c1.184-.736 2.672-1.104 4.464-1.104 1.712 0 3.152.368 4.32 1.104 1.168.72 2.048 1.744 2.64 3.072.608 1.312.912 2.856.912 4.632zm-13.536 0c0 1.44.2 2.68.6 3.72s1.016 1.84 1.848 2.4c.848.56 1.912.84 3.192.84 1.296 0 2.352-.28 3.168-.84.832-.56 1.448-1.36 1.848-2.4s.6-2.28.6-3.72c0-2.16-.448-3.848-1.344-5.064-.896-1.232-2.312-1.848-4.248-1.848-1.296 0-2.368.28-3.216.84-.832.544-1.448 1.336-1.848 2.376-.4 1.024-.6 2.256-.6 3.696z"/><path d="m199.42 220.24c-1.136 0-2.152-.232-3.048-.696-.88-.464-1.576-1.184-2.088-2.16-.496-.976-.744-2.224-.744-3.744 0-1.584.264-2.872.792-3.864s1.24-1.72 2.136-2.184c.912-.464 1.944-.696 3.096-.696.656 0 1.288.072 1.896.216.608.128 1.104.288 1.488.48l-.648 1.752c-.384-.144-.832-.28-1.344-.408s-.992-.192-1.44-.192c-.864 0-1.576.184-2.136.552s-.976.912-1.248 1.632-.408 1.616-.408 2.688c0 1.024.136 1.896.408 2.616s.68 1.264 1.224 1.632 1.224.552 2.04.552c.704 0 1.32-.072 1.848-.216.544-.144 1.04-.32 1.488-.528v1.872c-.432.224-.912.392-1.44.504-.512.128-1.136.192-1.872.192z"/><path d="m185.439 206.92c1.568 0 2.728.344 3.48 1.032s1.128 1.784 1.128 3.288v8.76h-1.536l-.408-1.824h-.096c-.368.464-.752.856-1.152 1.176-.384.304-.832.528-1.344.672-.496.144-1.104.216-1.824.216-.768 0-1.464-.136-2.088-.408-.608-.272-1.088-.688-1.44-1.248-.352-.576-.528-1.296-.528-2.16 0-1.28.504-2.264 1.512-2.952 1.008-.704 2.56-1.088 4.656-1.152l2.184-.072v-.768c0-1.072-.232-1.816-.696-2.232s-1.12-.624-1.968-.624c-.672 0-1.312.104-1.92.312-.608.192-1.176.416-1.704.672l-.648-1.584c.56-.304 1.224-.56 1.992-.768.768-.224 1.568-.336 2.4-.336zm.624 6.864c-1.6.064-2.712.32-3.336.768-.608.448-.912 1.08-.912 1.896 0 .72.216 1.248.648 1.584.448.336 1.016.504 1.704.504 1.088 0 1.992-.296 2.712-.888.72-.608 1.08-1.536 1.08-2.784v-1.152z"/><path d="m172.009 206.896c1.456 0 2.544.376 3.264 1.128.72.736 1.08 1.936 1.08 3.6v8.376h-2.088v-8.28c0-1.008-.216-1.768-.648-2.28-.416-.512-1.072-.768-1.968-.768-1.248 0-2.144.36-2.688 1.08-.528.72-.792 1.768-.792 3.144v7.104h-2.088v-8.28c0-.672-.096-1.232-.288-1.68-.192-.464-.48-.808-.864-1.032s-.88-.336-1.488-.336c-.864 0-1.544.184-2.04.552-.496.352-.856.872-1.08 1.56-.208.688-.312 1.536-.312 2.544v6.672h-2.112v-12.864h1.704l.312 1.752h.12c.272-.448.6-.816.984-1.104.4-.304.84-.528 1.32-.672s.976-.216 1.488-.216c.992 0 1.816.176 2.472.528.672.352 1.16.896 1.464 1.632h.12c.432-.736 1.016-1.28 1.752-1.632.752-.352 1.544-.528 2.376-.528z"/><path d="m130.28 207.256h10.464v1.632h-10.464zm4.176.984h1.992v4.344h-1.992zm-4.176-6.648h10.32v1.632h-8.328v4.752h-1.992zm13.728-1.416h1.992v16.224h-1.992zm-12.024 19.584h14.736v1.632h-14.736zm0-4.416h1.968v5.112h-1.968zm-3.36-1.68-.264-1.632c4.176 0 9.456-.096 13.92-.624l.12 1.464c-4.584.672-9.72.792-13.776.792z"/><path d="m111.563 213.112h1.992v3.528h-1.992zm9.12-12.936h1.992v21.696h-1.992zm1.344 9.216h4.008v1.68h-4.008zm-16.056 8.352-.288-1.656c3.888 0 9.192-.048 13.68-.696l.168 1.488c-4.68.84-9.768.864-13.56.864zm.072-14.952h12.984v1.608h-12.984zm6.504 2.88c3.024 0 5.112 1.584 5.112 4.008 0 2.448-2.088 4.008-5.112 4.008s-5.088-1.56-5.088-4.008c0-2.424 2.064-4.008 5.088-4.008zm0 1.536c-1.944 0-3.216.984-3.216 2.472s1.272 2.472 3.216 2.472 3.24-.984 3.24-2.472-1.296-2.472-3.24-2.472zm-.984-7.008h1.992v3.672h-1.992z"/><path d="m93.9726 204.16h6.2644v1.608h-6.2644zm0 4.68h6.3124v1.608h-6.3124zm5.496-8.64h1.9924v16.056h-1.9924zm-11.952 19.56h14.4724v1.632h-14.4724zm0-5.064h1.992v5.904h-1.992zm-2.832-13.08h1.968v3.84h5.88v-3.84h1.944v10.944h-9.792zm1.968 5.4v3.912h5.88v-3.912z"/><path d="m71.3475 200.176h1.92v21.696h-1.92zm-9.408 8.856h5.472v1.608h-5.472zm4.896-8.304h1.872v20.04h-1.872zm-4.632 2.184h1.92c0 5.688-2.28 10.8-8.136 14.28l-1.176-1.416c5.112-3.072 7.392-7.392 7.392-12.504zm-6.432 0h7.176v1.632h-7.176z"/><path d="m32.4941 211.264h19.68v1.632h-19.68zm8.832-2.616h1.992v3.432h-1.992zm-6.192 5.328h1.968v2.088h10.584v-2.088h1.968v7.608h-14.52zm1.968 3.648v2.376h10.584v-2.376zm-2.112-16.992h14.64v4.992h-12.624v2.856h-1.968v-4.344h12.648v-1.968h-12.696zm.048 7.032h15.072v1.56h-15.072z"/><path d="m14.7355 202.216h1.56v4.128c0 4.536-1.92 8.928-5.088 10.848l-1.27195-1.488c2.99995-1.752 4.79995-5.64 4.79995-9.36zm.36 0h1.56v4.008c0 3.576 1.68 7.248 4.56 8.856l-1.2 1.56c-3.168-1.824-4.92-6.048-4.92-10.416zm11.616-2.04h1.92v21.696h-1.92zm-3.432 8.712h4.152v1.656h-4.152zm-1.344-8.256h1.896v20.16h-1.896z"/><path d="m349.219 165.176h1.92v21.696h-1.92zm-9.408 8.856h5.472v1.608h-5.472zm4.896-8.304h1.872v20.04h-1.872zm-4.632 2.184h1.92c0 5.688-2.28 10.8-8.136 14.28l-1.176-1.416c5.112-3.072 7.392-7.392 7.392-12.504zm-6.432 0h7.176v1.632h-7.176z"/><path d="m325.077 165.176h1.992v21.696h-1.992zm1.512 8.904h4.032v1.68h-4.032zm-16.32-5.448h12.792v1.632h-12.792zm6.48 3.432c3.072 0 5.28 2.064 5.28 4.992s-2.208 4.992-5.28 4.992c-3.048 0-5.28-2.064-5.28-4.992s2.232-4.992 5.28-4.992zm0 1.656c-1.968 0-3.384 1.368-3.384 3.336 0 1.944 1.416 3.336 3.384 3.336s3.384-1.392 3.384-3.336c0-1.968-1.416-3.336-3.384-3.336zm-1.032-8.28h1.992v3.936h-1.992z"/><path d="m290.734 171.2h14.712v1.632h-14.712zm0-5.592h1.968v6.312h-1.968zm-2.664 9.744h19.608v1.608h-19.608zm9.768 3.552c4.632 0 7.44 1.416 7.44 3.96 0 2.496-2.808 3.936-7.44 3.936s-7.44-1.44-7.44-3.936c0-2.544 2.808-3.96 7.44-3.96zm0 1.56c-3.384 0-5.424.864-5.424 2.4 0 1.488 2.04 2.352 5.424 2.352 3.408 0 5.424-.864 5.424-2.352 0-1.536-2.016-2.4-5.424-2.4z"/><path d="m280.417 165.152h2.016v21.72h-2.016zm1.464 8.808h4.008v1.656h-4.008zm-7.008-6.456h1.944c0 6.168-2.832 11.736-9.84 15.264l-1.104-1.536c6-3.048 9-7.68 9-13.416zm-7.992 0h9.024v1.632h-9.024z"/><path d="m246.753 165.536c4.776 0 7.632 1.344 7.632 3.768s-2.856 3.768-7.632 3.768c-4.8 0-7.632-1.344-7.632-3.768s2.832-3.768 7.632-3.768zm0 1.512c-3.552 0-5.592.816-5.592 2.256s2.04 2.256 5.592 2.256c3.528 0 5.568-.816 5.568-2.256s-2.04-2.256-5.568-2.256zm-9.816 7.464h19.608v1.608h-19.608zm2.376 3.456h14.736v4.896h-12.72v2.64h-1.968v-4.08h12.72v-1.92h-12.768zm.048 7.104h15.336v1.56h-15.336z"/><path d="m230.482 165.176h1.992v14.688h-1.992zm-4.656 6.12h5.064v1.632h-5.064zm-2.16-4.416h2.088c0 5.616-3.696 9.6-9.912 11.616l-.84-1.584c5.496-1.728 8.664-4.992 8.664-9.24zm-7.632 0h9.048v1.632h-9.048zm8.448 11.112h1.704v.984c0 4.152-3.792 6.96-8.136 7.848l-.792-1.584c3.84-.696 7.224-3.096 7.224-6.264zm.288 0h1.704v.984c0 3.12 3.336 5.52 7.2 6.216l-.84 1.584c-4.32-.864-8.064-3.672-8.064-7.8z"/><path d="m185.825 176.576h19.608v1.632h-19.608zm2.544 8.184h14.904v1.632h-14.904zm0-4.656h1.992v5.16h-1.992zm7.272-14.208c4.632 0 7.632 1.632 7.632 4.344 0 2.688-3 4.32-7.632 4.32-4.656 0-7.632-1.632-7.632-4.32 0-2.712 2.976-4.344 7.632-4.344zm0 1.632c-3.408 0-5.592 1.008-5.592 2.712s2.184 2.712 5.592 2.712 5.592-1.008 5.592-2.712-2.184-2.712-5.592-2.712z"/><path d="m178.363 165.176h1.992v11.064h-1.992zm1.128 4.872h4.08v1.656h-4.08zm-15.072-3.456h9.96v8.856h-9.96zm8.016 1.608h-6.072v5.664h6.072zm-6.648 16.464h1.032c1.296 0 3.384-.12 5.232-.744l.336 1.608c-2.088.672-4.08.768-5.568.768h-1.032zm0-6.432h1.944v6.864h-1.944zm5.808.216h10.896v1.488h-10.896zm5.472 2.28c2.352 0 4.008 1.2 4.008 3.048 0 1.896-1.656 3.072-4.008 3.072-2.376 0-4.032-1.176-4.032-3.072 0-1.848 1.656-3.048 4.032-3.048zm0 1.416c-1.344 0-2.256.648-2.256 1.632 0 1.008.912 1.656 2.256 1.656 1.296 0 2.232-.648 2.232-1.656 0-.984-.936-1.632-2.232-1.632zm-.984-5.592h1.944v2.952h-1.944z"/><path d="m135.819 179.864h1.656c4.032 0 6.624-.096 9.648-.672l.216 1.632c-3.12.576-5.736.72-9.864.72h-1.656zm0-12.624h9.864v1.632h-7.896v11.616h-1.968zm14.808-2.064h1.992v21.744h-1.992zm-6.216 7.848h7.032v1.656h-7.032z"/><path d="m108.587 171.68h14.736v1.632h-14.736zm-2.664 4.536h19.68v1.632h-19.68zm2.664-10.248h1.968v6.528h-1.968zm-.144 18.744h15v1.632h-15zm0-4.704h1.968v5.136h-1.968z"/><path d="m98.3158 165.176h1.9922v21.696h-1.9922zm1.512 8.904h4.0322v1.68h-4.0322zm-16.32-5.448h12.792v1.632h-12.792zm6.48 3.432c3.072 0 5.28 2.064 5.28 4.992s-2.208 4.992-5.28 4.992c-3.048 0-5.28-2.064-5.28-4.992s2.232-4.992 5.28-4.992zm0 1.656c-1.968 0-3.384 1.368-3.384 3.336 0 1.944 1.416 3.336 3.384 3.336s3.384-1.392 3.384-3.336c0-1.968-1.416-3.336-3.384-3.336zm-1.032-8.28h1.992v3.936h-1.992z"/><path d="m67.4544 176.096h1.992v4.824h-1.992zm9.624-10.92h1.992v16.512h-1.992zm-12.816 19.584h15.336v1.632h-15.336zm0-4.68h1.992v5.136h-1.992zm-2.808-3.24-.264-1.632c4.008 0 9.384-.048 13.992-.648l.144 1.464c-4.68.744-9.936.816-13.872.816zm11.208 1.152h4.92v1.464h-4.92zm-4.416-11.928c3.168 0 5.328 1.488 5.328 3.768 0 2.304-2.16 3.792-5.328 3.792-3.192 0-5.352-1.488-5.352-3.792 0-2.28 2.16-3.768 5.352-3.768zm0 1.488c-2.04 0-3.456.888-3.456 2.28s1.416 2.28 3.456 2.28c2.016 0 3.432-.888 3.432-2.28s-1.416-2.28-3.432-2.28z"/><path d="m47.1817 165.152h2.016v21.72h-2.016zm1.464 8.808h4.008v1.656h-4.008zm-7.008-6.456h1.944c0 6.168-2.832 11.736-9.84 15.264l-1.104-1.536c6-3.048 9-7.68 9-13.416zm-7.992 0h9.024v1.632h-9.024z"/><path d="m26.6634 165.176h1.92v21.696h-1.92zm-3.648 8.832h4.176v1.632h-4.176zm-1.272-8.352h1.872v20.112h-1.872zm-10.512 2.136h1.992v12.528h-1.992zm0 11.736h1.392c2.232 0 4.728-.144 7.56-.696l.216 1.728c-2.952.576-5.448.696-7.776.696h-1.392z"/></g><path clip-rule="evenodd" d="m9 101c0-15.68 12.0431-28 28.2997-28 16.2727 0 28.2997 12.3037 28.2997 28 0 15.696-12.0432 28-28.2997 28-16.2566 0-28.2997-12.32-28.2997-28zm10.1059 0c0 10.518 7.9749 18.91 18.1938 18.91s18.1938-8.392 18.1938-18.91c0-10.5183-7.9749-18.9101-18.1938-18.9101s-18.1938 8.3918-18.1938 18.9101z" fill="#1050f0" fill-rule="evenodd"/><path d="m93.5601 82.4794c-1.5175-.7304-3.3741-1.12-5.1175-1.12-3.4548 0-5.6503 1.7531-5.6503 5.8435v3.0191h15.8691v-3.4411c0-8.1971 4.7466-13.7809 13.6896-13.7809 1.744 0 3.778.3409 5.311.9577v8.1809c-1.033-.4708-2.47-.7954-3.632-.7954-3.907 0-5.65 2.1264-5.65 6.3466v2.5322h25.587v37.837h-9.718v-29.5912h-15.869v29.5742h-9.7186v-29.5742h-15.8691v29.5742h-9.7184v-41.2611c0-8.4731 5.0368-13.7809 13.6897-13.7809 2.4054 0 4.8431.4382 6.7965 1.2174z" fill="#1050f0"/><path d="m123.2 78.9409c0-3.2951 2.631-5.9409 5.827-5.9409 3.358 0 5.909 2.7269 5.909 5.9409 0 3.2139-2.534 5.8597-5.909 5.8597-3.196 0-5.827-2.5647-5.827-5.8597z" fill="#1050f0"/><path clip-rule="evenodd" d="m428.023 78.8922c0-.0987.01-.2371.019-.4042l.004-.0984.003-.0639c.004-.092.006-.1904.006-.2938v-.8441h-1.534v.8441c0 .3733.017.6817.033.8603h-3.552v1.4446h1.857c-.614.3896-.969 1.1362-.969 2.029 0 1.7206 1.356 3.1165 3.406 3.1165 2.051 0 3.407-1.3959 3.407-3.1165 0-.8928-.356-1.6394-.969-2.029h1.856v-1.4446zm-.727 5.0968c-1.097 0-1.872-.8765-1.872-1.8829s.775-1.8829 1.872-1.8829c1.098 0 1.873.8765 1.873 1.8829s-.775 1.8829-1.873 1.8829z" fill="#1050f0" fill-rule="evenodd"/><path clip-rule="evenodd" d="m418.805 81.538c0-4.7073 3.81-8.538 8.491-8.538 4.682 0 8.492 3.8307 8.492 8.538 0 4.7072-3.81 8.5379-8.492 8.5379-4.681 0-8.491-3.8307-8.491-8.5379zm1.63 0c0 3.8144 3.068 6.9147 6.861 6.9147 3.778 0 6.861-3.1003 6.861-6.9147 0-3.8145-3.083-6.9148-6.861-6.9148-3.777 0-6.861 3.1003-6.861 6.9148z" fill="#1050f0" fill-rule="evenodd"/><path d="m248.587 96.9096h29.575v-23.0656h6.522v54.344h-6.522v-25.094h-29.575v25.094h-6.538v-54.344h6.538z" fill="#1050f0"/><path clip-rule="evenodd" d="m389.343 73.8603c5.101 0 9.444 1.4122 12.511 4.0904h.016c3.148 2.7432 4.827 6.72 4.827 11.4922 0 9.5768-6.651 15.5181-17.354 15.5181h-11.995v23.211h-6.522v-54.3117zm-11.995 25.0783h11.995c6.635 0 10.751-3.6035 10.751-9.4957s-4.116-9.5606-10.751-9.5606h-11.995z" fill="#1050f0" fill-rule="evenodd"/><path d="m358.169 73.844-13.851 41.505-14.19-41.505h-4.197l-14.384 41.505-13.577-41.505h-6.925l18.258 54.328h4.294l14.319-41.7807.081.2597 14.32 41.521h4.278l18.339-54.328z" fill="#1050f0"/><path clip-rule="evenodd" d="m179.299 109.278c0-11.2322 7.765-19.5592 18.71-19.5592 10.881 0 17.871 8.2458 17.871 19.3322v.002c0 1.216 0 1.914-.226 3.05h-26.992c.355 5.34 4.778 9.089 11.623 9.089 4.617 0 9.331-1.834 13.351-5.015l-.032 8.846c-3.875 2.451-8.686 3.977-14.239 3.977-12.317 0-20.083-8.489-20.083-19.722zm18.516-12.1736c-5.149 0-8.507 3.8306-8.992 8.1316h17.758c-.387-4.707-3.616-8.1316-8.766-8.1316z" fill="#1050f0" fill-rule="evenodd"/><path d="m162.429 98.0945c4.068 0 7.313 1.4284 10.041 3.8465h.016v-9.0732c-2.841-1.9316-6.377-3.1652-11.01-3.1652-6.716 0-12.866 2.9217-16.531 8.5705-1.889 2.9059-3.148 6.4929-3.148 11.0699 0 4.578 1.259 8.165 3.148 11.087 3.648 5.648 9.815 8.57 16.531 8.57 4.569 0 8.363-1.363 11.155-3.117v-9.057c-2.922 2.402-6.021 3.782-10.057 3.782-3.632 0-6.603-1.509-8.427-3.587-1.582-1.802-2.89-4.123-2.89-7.662 0-3.538 1.405-6.054 3.035-7.823 2.373-2.565 5.667-3.4415 8.137-3.4415z" fill="#1050f0"/><path d="m399.316 27.8906h4.825v4.3418h-4.825v17.4043h-5.343v-34.1406h5.343zm-9.722-4.9726h-10.651v14.1386c2.363-.0247 4.571-.1175 6.624-.2783 2.054-.1608 4.126-.4144 6.216-.7607l.557 4.4531c-2.412.4082-4.806.6803-7.181.8164-2.375.1237-5.251.1856-8.628.1856h-2.931v-22.8594h15.994z" fill="#000" fill-opacity=".8"/><path d="m366.586 22.9551h4.416v4.3789h-4.416v7.1992h-5.344v-19.0371h5.344zm-10.688-1.1504h-9.871v7.459c2.957-.0124 5.369-.0928 7.237-.2412 1.88-.1485 3.711-.4021 5.492-.7608l.556 4.1934c-1.942.4577-4.001.7545-6.178.8906-2.165.1237-5.338.1855-9.519.1855h-2.931v-15.957h15.214zm10.688 27.3496h-22.488v-13.2852h22.488zm-17.219-4.1563h11.949v-4.8984h-11.949z" fill="#000" fill-opacity=".8"/><path d="m313.631 15.9414c2.647.0124 4.898.2474 6.754.7051 1.868.4453 3.29 1.1009 4.267 1.9668.978.8535 1.472 1.8926 1.485 3.1172-.013 1.8802-1.107 3.3213-3.284 4.3232-2.165 1.002-5.239 1.5029-9.222 1.5029-2.647 0-4.905-.2226-6.773-.6679-1.867-.4453-3.29-1.1009-4.267-1.9668-.977-.8783-1.466-1.9421-1.466-3.1914 0-1.2246.489-2.2637 1.466-3.1172.977-.8659 2.4-1.5215 4.267-1.9668 1.868-.4577 4.126-.6927 6.773-.7051zm0 3.8965c-2.375 0-4.119.1546-5.233.4639-1.113.3092-1.669.7854-1.669 1.4287 0 .4824.241.8597.723 1.1318.483.2721 1.219.4701 2.208.5938.99.1237 2.313.1917 3.971.2041 1.682-.0124 3.024-.0804 4.026-.2041s1.744-.3217 2.227-.5938c.482-.2721.723-.6494.723-1.1318 0-.6433-.562-1.1195-1.688-1.4287-1.126-.3093-2.888-.4639-5.288-.4639zm15.549 13.3223h-31.061v-4.2305h31.061zm-3.711 10.6503h-18.555v1.5586h19.371v4.0079h-24.64v-9.2774h18.517v-1.4473h-18.517v-3.8593h23.824z" fill="#000" fill-opacity=".8"/><path d="m292.85 19.2441c0 1.5092-.038 2.8698-.112 4.0821-.074 1.2122-.247 2.5481-.519 4.0078h4.193v4.1562h-31.135v-4.1562h21.542c.396-1.9792.619-4.0697.668-6.2715h-18.462v-4.1934h23.825zm-.223 24.1211h-18.555v1.8926h19.483v4.082h-24.789v-9.9082h18.591v-1.7812h-18.628v-4.082h23.898z" fill="#000" fill-opacity=".8"/><path d="m259.562 25.7383h4.417v4.3418h-4.417v10.873h-5.343v-25.4199h5.343zm-6.976-2.6348h-20.188v-4.1562h7.422v-3.4512h5.344v3.4512h7.422zm-10.094.9649c1.645 0 3.105.2845 4.379.8535 1.287.5566 2.289 1.3421 3.006 2.3564.717 1.002 1.076 2.1585 1.076 3.4697 0 1.2989-.359 2.4431-1.076 3.4327-.717.9895-1.719 1.7627-3.006 2.3193-1.274.5443-2.734.8164-4.379.8164s-3.117-.2721-4.416-.8164c-1.286-.5566-2.294-1.3298-3.024-2.3193-.718-1.002-1.07-2.1462-1.058-3.4327-.012-1.2988.34-2.4554 1.058-3.4697.73-1.0143 1.738-1.7998 3.024-2.3564 1.299-.569 2.771-.8535 4.416-.8535zm0 4.082c-1.014 0-1.818.2288-2.412.6865-.594.4453-.891 1.0824-.891 1.9111 0 .8288.297 1.4597.891 1.8926.594.4206 1.398.6433 2.412.668 1.039-.0247 1.862-.2474 2.468-.668.606-.4329.909-1.0638.909-1.8926 0-.8287-.309-1.4658-.928-1.9111-.606-.4577-1.422-.6865-2.449-.6865zm18.184 20.8555h-23.453v-10.0196h5.343v5.752h18.11z" fill="#000" fill-opacity=".8"/><path d="m210.949 29.9688h-5.826v3.0058c2.709-.1237 5.183-.2969 7.422-.5195l.408 3.8222c-3.253.4577-6.612.767-10.075.9278-3.464.1484-7.119.2226-10.966.2226l-.668-4.1933c3.798-.0248 6.643-.0557 8.535-.0928v-3.1728h-5.715v-12.4688h16.625v4.2676h-11.281v3.9707h11.541zm8.906 11.207h-5.417v-25.6797h5.417zm.854 7.8301h-24.381v-9.7969h5.418v5.5293h18.963z" fill="#1050f0"/><path d="m185.752 29.1523h4.119v4.3789h-4.119v16.0313h-5.418v-34.0664h5.418zm-27.869 10.6133c3.439 0 6.123-.0185 8.053-.0556v-2.6719c-1.163-.2598-2.178-.6804-3.043-1.2617-.866-.5814-1.534-1.2865-2.004-2.1153-.47-.8411-.705-1.7627-.705-2.7646 0-1.2494.358-2.3565 1.076-3.3213.717-.9772 1.719-1.738 3.006-2.2822 1.286-.5443 2.746-.8164 4.379-.8164 1.632 0 3.086.2721 4.36.8164 1.286.5442 2.288 1.305 3.006 2.2822.73.9648 1.094 2.0719 1.094 3.3213 0 1.0019-.241 1.9235-.723 2.7646-.483.8412-1.163 1.5524-2.041 2.1338s-1.899.9958-3.062 1.2432v2.4863c2.709-.1361 5.208-.3649 7.496-.6865l.371 3.8594c-3.166.6061-6.395.9957-9.685 1.1689-3.278.1608-6.915.2412-10.91.2412zm20.744-16.4023h-20.113v-4.1934h7.422v-3.4511h5.343v3.4511h7.348zm-9.982 5.1582c-1.052 0-1.881.2041-2.487.6123s-.903.9958-.89 1.7627c-.013.7793.284 1.373.89 1.7812.606.3959 1.435.6062 2.487.6309 1.039-.0247 1.855-.235 2.449-.6309.594-.4082.89-1.0019.89-1.7812 0-.7669-.303-1.3545-.909-1.7627-.594-.4082-1.404-.6123-2.43-.6123z" fill="#1050f0"/><path d="m154.246 40.6191h-5.307v-8.0156h-5.714v2.7832h-16.44v-17.6269h5.381v4.9355h5.789v-4.9355h5.27v3.3027h5.714v-5.5293h5.307zm.705 8.3868h-23.564v-10.9102h5.418v6.6426h18.146zm-16.996-17.7754v-4.4903h-5.789v4.4903zm10.984-2.8946v-3.0058h-5.714v3.0058z" fill="#1050f0"/><path d="m113.686 49.5625h-5.122v-34.0664h5.122zm-7.163-1.5215h-5.046v-15.9199h-2.2084c-.1485 2.2018-.5505 4.1068-1.2061 5.7148-.6556 1.6081-1.5277 2.8389-2.6162 3.6924-1.0762.8535-2.307 1.2803-3.6924 1.2803-1.4844 0-2.7894-.501-3.915-1.5029-1.1133-1.0144-1.9792-2.4678-2.5977-4.3604-.6061-1.8926-.9092-4.1191-.9092-6.6797 0-2.5482.3031-4.7623.9092-6.6426.6185-1.8802 1.4844-3.3212 2.5977-4.3232 1.1132-1.0019 2.4183-1.5029 3.915-1.5029 1.3483 0 2.5544.402 3.6182 1.206 1.0638.8041 1.9235 1.9668 2.5791 3.4883.6679 1.5091 1.0947 3.3089 1.2802 5.3994h2.2456v-11.9492h5.046zm-14.7691-25.1972c-.8288 0-1.4596.6123-1.8926 1.8369-.4329 1.2122-.6432 3.0739-.6308 5.5849-.0371 4.9479.804 7.4219 2.5234 7.4219 1.7813 0 2.6719-2.474 2.6719-7.4219s-.8906-7.4218-2.6719-7.4218z" fill="#1050f0"/><path d="m64.0703 18.7617c-.0247 2.2761.5752 4.2738 1.7998 5.9932 1.237 1.7194 3.1976 2.9749 5.8819 3.7666l-2.8204 4.1191c-3.4388-1.0638-5.9375-3.0986-7.4961-6.1045-.7793 1.6823-1.8492 3.1234-3.2099 4.3233-1.3607 1.1998-3.0121 2.1028-4.9541 2.709l-2.7461-4.2676c1.8926-.5567 3.445-1.3669 4.6572-2.4307 1.2123-1.0638 2.0905-2.276 2.6348-3.6367.5566-1.3607.8349-2.7894.8349-4.2861v-2.1524h5.418zm14.2871 3.3028h4.416v4.3046h-4.416v7.1621h-5.3437v-18.0351h5.3437zm-13.2109 21.7089h-6.1231v1.6328c1.3607-.0123 2.5358-.0556 3.5254-.1298 1.002-.0866 2.0163-.2289 3.043-.4268l.4453 3.9336c-1.3607.2721-2.7213.4453-4.082.5195-1.3607.0743-3.3646.1114-6.0117.1114h-2.1524v-9.3516h6.1973v-1.4102h-6.2344v-3.8593h11.3926zm13.2109 5.6407h-11.541v-14.6211h11.541zm-6.9394-3.8594h2.375v-6.9024h-2.375z" fill="#1050f0"/><path d="m39.3184 49.5625h-5.084v-16.8477h-2.6719v15.2149h-4.9727v-31.9141h4.9727v12.4317h2.6719v-12.9512h5.084zm-22.8223-12.8213c2.9687-.1113 5.7519-.4144 8.3496-.9092l.5195 4.6016c-3.6367.6432-7.3476.9648-11.1328.9648h-.7051-2.375v-22.2285h5.3438z" fill="#1050f0"/></svg>